<svg xmlns="http://www.w3.org/2000/svg" viewBox="0 0 64 64" role="img" aria-label="智能报告系统图标">
  <rect width="64" height="64" fill="#e9e9e9"/>
  <rect x="7" y="3" width="50" height="58" rx="4" fill="#ffffff" stroke="#2478a3" stroke-width="2.5"/>
  <rect x="12" y="11" width="38" height="3" rx="1.5" fill="#707070"/>
  <rect x="12" y="19" width="19" height="3" rx="1.5" fill="#707070"/>
  <rect x="35" y="19" width="16" height="3" rx="1.5" fill="#707070"/>
  <path d="M31 32 A10 10 0 1 1 29.8 24.1 L30.9 31.1 Z" fill="#f39a38"/>
  <path d="M31 32 L29.7 24.2 A10 10 0 0 1 39.2 29.4 Z" fill="#f26a36"/>
  <rect x="35.5" y="26" width="16" height="3" rx="1.5" fill="#707070"/>
  <rect x="35.5" y="31" width="16" height="3" rx="1.5" fill="#707070"/>
  <rect x="12" y="45" width="16" height="3" rx="1.5" fill="#707070"/>
  <rect x="12" y="50" width="16" height="3" rx="1.5" fill="#707070"/>
  <rect x="12" y="55" width="16" height="3" rx="1.5" fill="#707070"/>
  <rect x="31.8" y="45" width="6" height="13" rx="1.4" fill="#f26a36"/>
  <rect x="39" y="42" width="6" height="16" rx="1.4" fill="#f26a36"/>
  <rect x="46.2" y="38" width="6" height="20" rx="1.4" fill="#f26a36"/>
</svg>
